<?xml version="1.0" standalone="no"?><!DOCTYPE svg PUBLIC "-//W3C//DTD SVG 1.1//EN" "http://www.w3.org/Graphics/SVG/1.1/DTD/svg11.dtd"><svg t="1552993907985" class="icon" style="" viewBox="0 0 1024 1024" version="1.1" xmlns="http://www.w3.org/2000/svg" p-id="1836" xmlns:xlink="http://www.w3.org/1999/xlink" width="128" height="128"><defs><style type="text/css"></style></defs><path d="M898.9 782.5h-61.3c-11.9-22.9-33.4-68.6-33.4-92.8 0-9.6 3.7-14.6 10.5-23.8 11.9-16 28.4-38 28.4-96.5 0-59.4-48-107.5-107.5-107.5s-107.5 48-107.5 107.5c0 58.1 16.5 80.5 28.4 96.5 6.9 9.1 10.5 14.2 10.5 23.8 0 24.2-21.5 70-33.4 92.8h-77.7c-32.9 0-59.4 23.8-59.4 53.5v71.8c0 29.7 26.5 53.5 59.4 53.5h343c32.9 0 59.4-23.8 59.4-53.5V836c0-29.2-26.5-53.5-59.4-53.5z m-204.4-92.8c0-18.7-8.2-29.7-16-40.2-11-14.6-22.9-30.6-22.9-80 0-43.9 36.1-80 80-80s80 36.1 80 80c0 48.9-12.3 65.4-22.9 80-7.8 10.5-16 21.5-16 40.2 0 27.4 17.8 68.1 30.2 92.8H664.7c11.9-24.2 29.8-65.4 29.8-92.8z m236.4 218.1c0 14.2-14.2 26.1-32 26.1h-343c-17.8 0-32-11.9-32-26.1V836c0-14.2 14.2-26.1 32-26.1h343c17.8 0 32 11.9 32 26.1v71.8z" fill="" p-id="1837"></path><path d="M749.3 314.2v-2.7c0-0.9-0.5-1.4-0.9-2.3 0 0 0-0.5-0.5-0.5-0.5-0.5-0.5-0.9-0.9-1.8 0-0.5-0.5-0.5-0.5-0.5-0.5-0.5-0.5-0.9-0.9-1.4l-0.5-0.5-0.5-0.5L480.9 67.8c-3.7-3.2-8.2-4.1-12.8-3.2H121.5C88.6 64.6 62 91.1 62 124v777.4c0 32.9 26.5 59.4 59.4 59.4h284.4c7.8 0 13.7-5.9 13.7-13.7s-5.9-13.7-13.7-13.7H121.5c-17.8 0-32-14.2-32-32V124c0-17.8 14.2-32 32-32H458v176.5c0 32.9 26.5 59.4 59.4 59.4h204.4v74.5c0 7.8 5.9 13.7 13.7 13.7s13.7-5.9 13.7-13.7v-88.2c0.1 0.5 0.1 0.5 0.1 0zM517.5 301c-17.8 0-32-14.2-32-32V108.9L700 301H517.5z" fill="" p-id="1838"></path><path d="M472.2 488.9H179.6c-7.8 0-13.7-5.9-13.7-13.7 0-7.8 5.9-13.7 13.7-13.7h292.7c7.8 0 13.7 5.9 13.7 13.7-0.1 7.8-6 13.7-13.8 13.7z m0 207.2H179.6c-7.8 0-13.7-5.9-13.7-13.7s5.9-13.7 13.7-13.7h292.7c7.8 0 13.7 5.9 13.7 13.7s-6 13.7-13.8 13.7z" fill="" p-id="1839"></path></svg>