<?xml version="1.0" encoding="utf-8"?>
<!-- Generator: Adobe Illustrator 21.0.0, SVG Export Plug-In . SVG Version: 6.00 Build 0)  -->
<svg version="1.1" id="图层_1" xmlns="http://www.w3.org/2000/svg" xmlns:xlink="http://www.w3.org/1999/xlink" x="0px" y="0px"
	 viewBox="0 0 110 110" style="enable-background:new 0 0 110 110;" xml:space="preserve">
<style type="text/css">
	.st0{fill:#F4516D;}
</style>
<g>
	<path class="st0" d="M74.1,34.3H35.9c-1.8,0-3.3,0.7-4.5,1.8l0,0c-1.2,1.1-1.8,2.7-1.8,4.5v13h8.1l2.2-3.7c0.4-0.7,1.3-0.9,1.9-0.5
		c0.3,0.2,0.6,0.6,0.6,0.9l1.2,4.6l4-15.1c0.2-0.7,0.9-1.2,1.7-1c0.6,0.2,1,0.6,1.1,1.2l1.8,20.6l1.6-6c0.2-0.6,0.7-1,1.3-1h5
		c0.3-1.1,0.8-2,1.6-2.7l0.1-0.1c1-1,2.5-1.6,4-1.6c1.6,0,3,0.6,4.1,1.7c1.1,1.1,1.7,2.5,1.7,4.1c0,1.6-0.6,3-1.7,4.1l-0.1,0.1
		c-1,1-2.5,1.6-4,1.6c-1.6,0-3.1-0.6-4.1-1.7v0c-0.8-0.7-1.3-1.7-1.6-2.7h-4L52.9,69c-0.1,0.6-0.7,1-1.3,1.1c-0.8,0-1.4-0.5-1.5-1.3
		l-1.8-20.6L45,60.7c-0.1,0.5-0.5,0.9-1,1c-0.7,0.2-1.5-0.2-1.7-1l-1.7-6.5l-0.9,1.5c-0.2,0.4-0.7,0.7-1.2,0.7h-8.9v13
		c0,1.7,0.7,3.3,1.8,4.5h0c1.1,1.1,2.7,1.9,4.5,1.9h38.1c1.7,0,3.2-0.7,4.4-1.8l0.1-0.1c1.2-1.1,1.9-2.8,1.9-4.5V40.6
		c0-1.7-0.7-3.3-1.9-4.5C77.4,35,75.8,34.3,74.1,34.3z"/>
	<path class="st0" d="M67.9,57.2L67.9,57.2c0.6-0.6,0.9-1.4,0.9-2.2c0-0.8-0.3-1.6-0.9-2.2c-0.5-0.5-1.3-0.9-2.1-0.9
		c-0.8,0-1.6,0.3-2.1,0.8l-0.1,0.1c-0.5,0.5-0.8,1.3-0.9,2.1V55v0c0,0.8,0.4,1.6,0.9,2.1c0.6,0.5,1.3,0.9,2.2,0.9
		C66.6,58,67.3,57.7,67.9,57.2z"/>
	<path class="st0" d="M55,0C24.6,0,0,24.6,0,55c0,30.4,24.6,55,55,55c30.4,0,55-24.6,55-55C110,24.6,85.4,0,55,0z M85,69.4
		c0,3-1.2,5.8-3.2,7.8l-0.1,0.1c-2,1.9-4.7,3.1-7.6,3.1H35.9c-3,0-5.8-1.2-7.7-3.2l0,0l0,0c-2-2-3.2-4.7-3.2-7.7V40.6
		c0-3,1.2-5.8,3.2-7.7h0l0-0.1c2-1.9,4.7-3.2,7.7-3.2h38.1c3,0,5.8,1.3,7.7,3.2c2,2,3.2,4.7,3.2,7.7V69.4z"/>
</g>
</svg>
