<?xml version="1.0" standalone="no"?><!DOCTYPE svg PUBLIC "-//W3C//DTD SVG 1.1//EN" "http://www.w3.org/Graphics/SVG/1.1/DTD/svg11.dtd"><svg t="1550296819597" class="icon" style="" viewBox="0 0 1024 1024" version="1.1" xmlns="http://www.w3.org/2000/svg" p-id="7269" xmlns:xlink="http://www.w3.org/1999/xlink" width="200" height="200"><defs><style type="text/css"></style></defs><path d="M512 972.8C256 972.8 51.2 768 51.2 512S256 51.2 512 51.2 972.8 256 972.8 512 768 972.8 512 972.8z m227.2-480c9.6-9.6 16-25.6 9.6-41.6-6.4-12.8-16-22.4-32-25.6 0 0-28.8-9.6-54.4-12.8-28.8-3.2-54.4-3.2-54.4-3.2-6.4 0-12.8-3.2-16-9.6 0 0-6.4-28.8-19.2-51.2-12.8-22.4-32-48-32-48-6.4-12.8-22.4-22.4-35.2-22.4-16 0-28.8 9.6-35.2 22.4 0 0-22.4 28.8-28.8 48-9.6 19.2-19.2 51.2-19.2 51.2-3.2 6.4-9.6 9.6-16 9.6 0 0-32 0-54.4 3.2s-57.6 12.8-57.6 12.8c-16 3.2-28.8 12.8-32 25.6-6.4 12.8 0 28.8 9.6 41.6 0 0 16 25.6 35.2 41.6s44.8 32 44.8 32c6.4 3.2 6.4 12.8 6.4 19.2 0 0-9.6 35.2-12.8 57.6-3.2 22.4-6.4 51.2-6.4 51.2-3.2 12.8 0 22.4 9.6 32 6.4 9.6 19.2 12.8 32 12.8 6.4 0 12.8 0 19.2-3.2 0 0 28.8-6.4 54.4-22.4 25.6-12.8 44.8-28.8 44.8-28.8 3.2 0 6.4-3.2 9.6-3.2 3.2 0 6.4 0 9.6 3.2l48 28.8 51.2 22.4c6.4 3.2 12.8 3.2 19.2 3.2 12.8 0 22.4-6.4 32-12.8 6.4-9.6 9.6-19.2 9.6-32l-6.4-57.6-9.6-51.2c0-6.4 0-12.8 6.4-19.2 0 0 22.4-16 41.6-32 6.4-12.8 28.8-41.6 28.8-41.6z" fill="#FF79B8" p-id="7270"></path></svg>