<?xml version="1.0" standalone="no"?><!DOCTYPE svg PUBLIC "-//W3C//DTD SVG 1.1//EN" "http://www.w3.org/Graphics/SVG/1.1/DTD/svg11.dtd"><svg t="1552721532252" class="icon" style="" viewBox="0 0 1024 1024" version="1.1" xmlns="http://www.w3.org/2000/svg" p-id="1780" xmlns:xlink="http://www.w3.org/1999/xlink" width="128" height="128"><defs><style type="text/css"></style></defs><path d="M868.48 279.04l1.92 688c0 28.16-23.04 50.56-50.56 50.56H204.8c-28.16 0-50.56-23.04-50.56-50.56V172.8c0-28.16 23.04-50.56 50.56-50.56h494.72l168.96 156.8z" fill="#D0D2DF" p-id="1781"></path><path d="M268.8 614.4h486.4c7.04 0 12.8 5.76 12.8 12.8v38.4c0 7.04-5.76 12.8-12.8 12.8H268.8c-7.04 0-12.8-5.76-12.8-12.8v-38.4c0-7.04 5.76-12.8 12.8-12.8zM268.8 774.4h230.4c7.04 0 12.8 5.76 12.8 12.8v38.4c0 7.04-5.76 12.8-12.8 12.8H268.8c-7.04 0-12.8-5.76-12.8-12.8v-38.4c0-7.04 5.76-12.8 12.8-12.8z" fill="#B5B5CD" p-id="1782"></path><path d="M704 121.6v115.2c5.12 28.8 23.04 43.52 52.48 43.52H870.4L704 121.6z" fill="#B5B6CC" p-id="1783"></path><path d="M723.2 492.8m-44.8 0a44.8 44.8 0 1 0 89.6 0 44.8 44.8 0 1 0-89.6 0Z" p-id="1784"></path><path d="M723.2 492.8m-44.8 0a44.8 44.8 0 1 0 89.6 0 44.8 44.8 0 1 0-89.6 0Z" fill="#FFFFFF" p-id="1785"></path><path d="M300.8 492.8m-44.8 0a44.8 44.8 0 1 0 89.6 0 44.8 44.8 0 1 0-89.6 0Z" p-id="1786"></path><path d="M300.8 492.8m-44.8 0a44.8 44.8 0 1 0 89.6 0 44.8 44.8 0 1 0-89.6 0Z" fill="#FFFFFF" p-id="1787"></path><path d="M512 492.8m-44.8 0a44.8 44.8 0 1 0 89.6 0 44.8 44.8 0 1 0-89.6 0Z" p-id="1788"></path><path d="M512 492.8m-44.8 0a44.8 44.8 0 1 0 89.6 0 44.8 44.8 0 1 0-89.6 0Z" fill="#FFFFFF" p-id="1789"></path><path d="M964.48 17.28c11.52 11.52 11.52 29.44 0 40.96l-58.88 58.88c-11.52 11.52-29.44 11.52-40.96 0-11.52-11.52-11.52-29.44 0-40.96l58.88-58.88c11.52-11.52 30.08-11.52 40.96 0zM771.2 16c12.16 0 22.4 10.24 22.4 22.4v38.4c0 12.16-10.24 22.4-22.4 22.4S748.8 88.96 748.8 76.8V38.4c0-12.16 10.24-22.4 22.4-22.4zM966.4 204.8c0 12.16-10.24 22.4-22.4 22.4h-38.4c-12.16 0-22.4-10.24-22.4-22.4s10.24-22.4 22.4-22.4h38.4c12.16 0 22.4 10.24 22.4 22.4z" fill="#D0D2DF" p-id="1790"></path></svg>