<?xml version="1.0" encoding="utf-8"?>
<!-- Generator: Adobe Illustrator 21.0.0, SVG Export Plug-In . SVG Version: 6.00 Build 0)  -->
<svg version="1.1" id="图层_1" xmlns="http://www.w3.org/2000/svg" xmlns:xlink="http://www.w3.org/1999/xlink" x="0px" y="0px"
	 viewBox="0 0 44 44" style="enable-background:new 0 0 44 44;" xml:space="preserve">
<style type="text/css">
	.st0{fill:#7B7B7B;}
</style>
<path class="st0" d="M12.4,26.2c-0.1,0.2-0.1,0.3-0.1,0.3c0.7,5.1,0.4,4.6,5.2,4.6h22.2c0.4,0,1-0.1,1.3,0.1
	c0.4,0.3,0.9,0.8,0.9,1.2c0,0.4-0.6,0.8-1,1.1c-0.2,0.2-0.7,0.1-1,0.1H15.2c-3,0-4.5-1.3-4.9-4.3C9,21.5,7.7,13.8,6.4,6
	C6.2,4.5,5.7,4.1,4.2,4.1c-1,0-1.9,0.1-2.8-0.1C0.8,3.9,0.2,3.4,0,2.8C-0.2,2,0.5,1.6,1.3,1.6c1.2,0,2.4-0.1,3.6,0
	c1.9,0.1,3.5,1.5,3.8,3.5c0.2,1.2,0.7,1.5,1.8,1.5c9.8-0.1,19.6,0,29.4,0c3.2,0,4.5,1.5,3.9,4.6c-0.5,2.8-1,5.7-1.4,8.5
	c-0.4,2.7-2,4.1-4.8,4.3c-7.9,0.6-15.8,1.3-23.8,1.9C13.4,26,12.9,26.1,12.4,26.2z M9.6,9.1C9.5,9.3,9.5,9.4,9.5,9.5
	c0.7,4.4,1.5,8.9,2.2,13.3c0.1,0.7,0.5,0.8,1.2,0.8c8.3-0.7,16.6-1.4,24.9-2c1.3-0.1,2-0.7,2.2-2c0.4-2.8,0.9-5.7,1.4-8.5
	c0.3-1.8,0.2-1.9-1.6-1.9H10.9C10.5,9.1,10.1,9.1,9.6,9.1z M37.9,42.4c-1.4,0-2.6-1.2-2.5-2.5c0-1.4,1.1-2.5,2.6-2.5
	c1.4,0,2.5,1.1,2.5,2.5C40.4,41.3,39.3,42.4,37.9,42.4z M15.6,37.4c1.4,0,2.6,1.1,2.6,2.5c0,1.4-1.1,2.5-2.6,2.5
	c-1.4,0-2.5-1.1-2.5-2.5C13.1,38.5,14.2,37.4,15.6,37.4z"/>
</svg>
