<?xml version="1.0" encoding="utf-8"?>
<!-- Generator: Adobe Illustrator 21.0.0, SVG Export Plug-In . SVG Version: 6.00 Build 0)  -->
<svg version="1.1" id="图层_1" xmlns="http://www.w3.org/2000/svg" xmlns:xlink="http://www.w3.org/1999/xlink" x="0px" y="0px"
	 viewBox="0 0 28 28" style="enable-background:new 0 0 28 28;" xml:space="preserve">
<style type="text/css">
	.st0{fill:#333333;}
</style>
<path class="st0" d="M27,1c-0.8-0.8-2.1-0.8-2.9,0L14,11.1L3.9,1C3.1,0.3,1.8,0.3,1,1C0.3,1.8,0.3,3.1,1,3.9L11.1,14L1,24.1
	c-0.8,0.8-0.8,2.1,0,2.9c0.4,0.4,0.9,0.6,1.4,0.6c0.5,0,1-0.2,1.4-0.6L14,16.9L24.1,27c0.4,0.4,0.9,0.6,1.4,0.6c0.5,0,1-0.2,1.4-0.6
	c0.8-0.8,0.8-2.1,0-2.9L16.9,14L27,3.9C27.7,3.1,27.7,1.8,27,1z"/>
</svg>
