<?xml version="1.0" encoding="utf-8"?>
<!-- Generator: Adobe Illustrator 21.0.0, SVG Export Plug-In . SVG Version: 6.00 Build 0)  -->
<svg version="1.1" id="图层_1" xmlns="http://www.w3.org/2000/svg" xmlns:xlink="http://www.w3.org/1999/xlink" x="0px" y="0px"
	 viewBox="0 0 24 32" style="enable-background:new 0 0 24 32;" xml:space="preserve">
<style type="text/css">
	.st0{fill:#B9B9B9;}
</style>
<g>
	<g>
		<path class="st0" d="M21,4h-2.9l-0.4-2.5C17.6,0.7,16.8,0,16,0H8C7.2,0,6.4,0.7,6.3,1.5L5.9,4H3C1.3,4,0,5.3,0,7v1h24V7
			C24,5.3,22.7,4,21,4z M8.2,2h7.5L16,4H8L8.2,2z"/>
		<path class="st0" d="M21.5,10h-19c-1.1,0-1.9,0.9-1.8,2l1.6,18c0.1,1.1,1.1,2,2.2,2h15c1.1,0,2.1-0.9,2.2-2l1.6-18
			C23.4,10.9,22.6,10,21.5,10z M8,28H5L4,14h4V28z M14,28h-4V14h4V28z M19,28h-3V14h4L19,28z"/>
	</g>
</g>
</svg>
