<?xml version="1.0" standalone="no"?><!DOCTYPE svg PUBLIC "-//W3C//DTD SVG 1.1//EN" "http://www.w3.org/Graphics/SVG/1.1/DTD/svg11.dtd"><svg t="1553137396013" class="icon" style="" viewBox="0 0 1024 1024" version="1.1" xmlns="http://www.w3.org/2000/svg" p-id="3527" xmlns:xlink="http://www.w3.org/1999/xlink" width="128" height="128"><defs><style type="text/css"></style></defs><path d="M512 32c265.6 0 480 214.4 480 480s-214.4 480-480 480S32 777.6 32 512 246.4 32 512 32z" fill="#EB5454" p-id="3528"></path><path d="M512 1024C230.4 1024 0 793.6 0 512S230.4 0 512 0s512 230.4 512 512-230.4 512-512 512z m0-960C265.6 64 64 265.6 64 512s201.6 448 448 448 448-201.6 448-448S758.4 64 512 64z" fill="#FFFFFF" p-id="3529"></path><path d="M320 480h384c19.2 0 32 12.8 32 32s-12.8 32-32 32H320c-19.2 0-32-12.8-32-32s12.8-32 32-32z" fill="#FFFFFF" p-id="3530"></path></svg>