<?xml version="1.0" encoding="utf-8"?>
<!-- Generator: Adobe Illustrator 21.0.0, SVG Export Plug-In . SVG Version: 6.00 Build 0)  -->
<svg version="1.1" id="图层_1" xmlns="http://www.w3.org/2000/svg" xmlns:xlink="http://www.w3.org/1999/xlink" x="0px" y="0px"
	 viewBox="0 0 26 26" style="enable-background:new 0 0 26 26;" xml:space="preserve">
<style type="text/css">
	.st0{fill:#999999;}
</style>
<path class="st0" d="M6,10.8l5.6,5.6C12,16.8,12.5,17,13,17c0.5,0,1-0.2,1.4-0.6l5.6-5.6c0.4-0.4,0.4-1.2,0-1.6
	c-0.2-0.2-0.5-0.3-0.8-0.3c-0.3,0-0.6,0.1-0.8,0.3l-4.3,4.3V1.4c0-0.6-0.5-1.1-1.1-1.1s-1.1,0.5-1.1,1.1v12.1L7.6,9.2
	C7.3,9,7.1,8.9,6.8,8.9C6.5,8.9,6.2,9,6,9.2C5.8,9.4,5.6,9.7,5.6,10S5.8,10.6,6,10.8z M21.3,3.3c-0.6,0-1.1,0.5-1.1,1.1
	s0.5,1.1,1.1,1.1c1.3,0,2.4,1.1,2.4,2.4V21c0,1.3-1.1,2.4-2.4,2.4H4.7c-1.3,0-2.4-1.1-2.4-2.4V8c0-1.3,1.1-2.4,2.4-2.4
	c0.6,0,1.1-0.5,1.1-1.1S5.3,3.3,4.7,3.3C2.1,3.3,0,5.4,0,8V21c0,2.6,2.1,4.7,4.7,4.7l0,0h16.6c2.6,0,4.7-2.1,4.7-4.7L26,8
	C26,5.4,23.9,3.3,21.3,3.3z"/>
</svg>
