<?xml version="1.0" standalone="no"?><!DOCTYPE svg PUBLIC "-//W3C//DTD SVG 1.1//EN" "http://www.w3.org/Graphics/SVG/1.1/DTD/svg11.dtd"><svg t="1552275285381" class="icon" style="" viewBox="0 0 1024 1024" version="1.1" xmlns="http://www.w3.org/2000/svg" p-id="12863" xmlns:xlink="http://www.w3.org/1999/xlink" width="128" height="128"><defs><style type="text/css"></style></defs><path d="M838.376349 494.239498c-1.802042 0-3.570315 0.149403-5.341658 0.264013 0.237407-4.990664 0.391926-10.003841 0.396019-15.054881 0.100284-91.990111-38.931684-174.85233-101.329826-232.962819 10.425444-10.67206 18.630313-25.173332 22.851451-44.845371 14.575973-67.947532-61.619406-114.226554-61.619406-114.226554-2.128477 65.550948-114.445542 73.637114-173.255972 73.363891-20.925588-0.097214-35.074843 1.517563-35.074843 1.517563 0.113587 0.1361 0.228197 0.26299 0.341784 0.399089-161.229055 15.205307-287.48048 150.822031-287.657512 316.066539-0.008186 5.012154 0.137123 9.990538 0.361227 14.94641-1.065262-0.040932-2.105964-0.163729-3.178389-0.163729-45.316092-0.048095-82.096786 36.649711-82.145905 81.96478-0.048095 45.316092 36.649711 82.096786 81.968873 82.145905 10.162454 0.00921 19.848047-1.912559 28.836769-5.28026 39.040155 103.773482 154.800645 179.108261 291.64943 179.257663 137.151683 0.144286 253.303077-75.264171 292.314579-179.310875 9.488095 3.847631 19.838837 6.019087 30.704302 6.028297 45.320185 0.053212 82.096786-36.645618 82.145905-81.96478C920.391271 531.065218 883.692441 494.287593 838.376349 494.239498L838.376349 494.239498zM877.444133 586.472132c-6.5553 22.74605-23.502273 26.935466-38.939871 28.526707-25.726941 2.656503-56.284911-10.020214-56.284911-10.020214-47.453778 111.706151-146.799414 177.402409-278.283004 173.695994-197.950398-5.580089-247.143797-173.001169-247.143797-173.001169-10.380418 7.04444-31.292704 10.100032-52.851719 10.100032-16.963347 0-40.013319-10.250458-43.947931-37.014009-3.856841-26.215058 18.358113-42.923602 36.241412-47.804772 16.963347-4.625344 43.946908-7.707542 43.946908-7.707542 11.366885-301.024961 241.268996-320.17409 319.118038-317.210595 98.541317 3.755534 140.872424-45.228087 140.872424-45.228087 34.243919 50.166563-29.750581 91.031273-29.750581 91.031273 137.244804 110.26022 120.209826 270.791379 120.209826 270.791379 31.685653 1.771343 52.500725 6.78452 65.35345 12.948917C872.833115 543.670304 884.365776 562.451042 877.444133 586.472132L877.444133 586.472132zM877.444133 586.472132" p-id="12864"></path><path d="M366.550327 501.850849c19.60143-6.595208 41.104163 4.717442 48.02376 25.278733 6.921643 20.561291-3.358491 42.575678-22.960944 49.176003-19.60143 6.600325-41.108257-4.717442-48.028876-25.278733C336.663646 530.466584 346.94378 508.451174 366.550327 501.850849L366.550327 501.850849zM366.550327 501.850849" p-id="12865"></path><path d="M641.452327 501.850849c19.60143-6.595208 41.107233 4.717442 48.028876 25.278733 6.92062 20.561291-3.359514 42.575678-22.966061 49.176003-19.60143 6.600325-41.10314-4.717442-48.02376-25.278733C611.56974 530.466584 621.850897 508.451174 641.452327 501.850849L641.452327 501.850849zM641.452327 501.850849" p-id="12866"></path></svg>