<?xml version="1.0" encoding="utf-8"?>
<!-- Generator: Adobe Illustrator 21.0.0, SVG Export Plug-In . SVG Version: 6.00 Build 0)  -->
<svg version="1.1" id="图层_1" xmlns="http://www.w3.org/2000/svg" xmlns:xlink="http://www.w3.org/1999/xlink" x="0px" y="0px"
	 viewBox="0 0 44 44" style="enable-background:new 0 0 44 44;" xml:space="preserve">
<style type="text/css">
	.st0{fill:#666666;}
</style>
<path class="st0" d="M35,14c-0.6,0-1,0.4-1,1v27H2V10h27c0.6,0,1-0.4,1-1c0-0.6-0.4-1-1-1H1C0.4,8,0,8.4,0,9v34c0,0.6,0.4,1,1,1h34
	c0.6,0,1-0.4,1-1V15C36,14.4,35.6,14,35,14 M43,0H33c-0.6,0-1,0.4-1,1c0,0.6,0.4,1,1,1h7.6L12.3,30.3C12.1,30.5,12,30.7,12,31
	c0,0.6,0.4,1,1,1c0.3,0,0.5-0.1,0.7-0.3L42,3.4V11c0,0.6,0.4,1,1,1c0.6,0,1-0.4,1-1V1C44,0.4,43.6,0,43,0"/>
</svg>
