<?xml version="1.0" encoding="utf-8"?>
<!-- Generator: Adobe Illustrator 21.0.0, SVG Export Plug-In . SVG Version: 6.00 Build 0)  -->
<svg version="1.1" id="图层_1" xmlns="http://www.w3.org/2000/svg" xmlns:xlink="http://www.w3.org/1999/xlink" x="0px" y="0px"
	 viewBox="0 0 32 32" style="enable-background:new 0 0 32 32;" xml:space="preserve">
<style type="text/css">
	.st0{fill:#333333;}
</style>
<g>
	<path class="st0" d="M25.4,4L25.4,4c-2.6-2.6-5.9-4-9.4-4c-3.5,0-6.9,1.4-9.4,3.9L6.6,4c-5.2,5.2-5.2,13.6,0,18.8l9.4,9.1L16,32
		l9.4-9.2C30.6,17.6,30.6,9.2,25.4,4z M24.3,21.7L16,29.8l-8.3-8.1c-4.6-4.6-4.6-12,0-16.6L7.7,5c2.2-2.2,5.1-3.4,8.3-3.4
		s6.1,1.2,8.3,3.4l0.1,0.1C28.9,9.7,28.9,17.1,24.3,21.7z"/>
	<path class="st0" d="M16,8.6c-2.3,0-4.1,1.8-4.1,4.1s1.8,4.1,4.1,4.1c2.3,0,4.1-1.8,4.1-4.1S18.3,8.6,16,8.6z M18.5,12.7
		c0,1.4-1.1,2.5-2.5,2.5c-1.4,0-2.5-1.1-2.5-2.5c0-1.4,1.1-2.5,2.5-2.5C17.4,10.2,18.5,11.3,18.5,12.7z"/>
</g>
</svg>
