<?xml version="1.0" encoding="utf-8"?>
<!-- Generator: Adobe Illustrator 21.0.0, SVG Export Plug-In . SVG Version: 6.00 Build 0)  -->
<svg version="1.1" id="图层_1" xmlns="http://www.w3.org/2000/svg" xmlns:xlink="http://www.w3.org/1999/xlink" x="0px" y="0px"
	 viewBox="0 0 110 110" style="enable-background:new 0 0 110 110;" xml:space="preserve">
<style type="text/css">
	.st0{fill:#17CA5D;}
</style>
<g>
	<g>
		<path class="st0" d="M55,5.5c27.3,0,49.5,22.2,49.5,49.5S82.3,104.5,55,104.5S5.5,82.3,5.5,55S27.7,5.5,55,5.5 M55,0
			C24.7,0,0,24.7,0,55s24.7,55,55,55s55-24.7,55-55S85.3,0,55,0L55,0z"/>
	</g>
	<path class="st0" d="M49.9,80.9L24.1,55.8l6.5-5.4l14.9,11.4c0,0,17.1-19.5,37.9-32.6l2.5,3.1C85.9,32.2,62.2,53.3,49.9,80.9
		L49.9,80.9z"/>
</g>
</svg>
