<?xml version="1.0" encoding="utf-8"?>
<!-- Generator: Adobe Illustrator 21.0.0, SVG Export Plug-In . SVG Version: 6.00 Build 0)  -->
<svg version="1.1" id="图层_1" xmlns="http://www.w3.org/2000/svg" xmlns:xlink="http://www.w3.org/1999/xlink" x="0px" y="0px"
	 viewBox="0 0 26 26" style="enable-background:new 0 0 26 26;" xml:space="preserve">
<style type="text/css">
	.st0{fill:#999999;}
</style>
<path class="st0" d="M23.3,16.7v5.5c0,0.9-0.8,1.8-1.7,1.8L3.6,24c-0.9,0-1.7-0.8-1.7-1.7L2,3.8C2,2.8,2.7,2,3.7,2h9.9V0H3.7
	C1.6,0,0,2.2,0,4.1v18.1C0,24.3,1.6,26,3.6,26h17.6c2.1,0,4-1.8,4-3.8v-5.5L23.3,16.7L23.3,16.7z M7,17.4c4.3-6.3,11.6-5.5,11.6-5.5
	v4.4L26,8.7l-7.4-7.6v4.4C8.3,5.4,7,17.4,7,17.4z"/>
</svg>
