<?xml version="1.0" encoding="utf-8"?>
<!-- Generator: Adobe Illustrator 21.0.0, SVG Export Plug-In . SVG Version: 6.00 Build 0)  -->
<svg version="1.1" id="图层_1" xmlns="http://www.w3.org/2000/svg" xmlns:xlink="http://www.w3.org/1999/xlink" x="0px" y="0px"
	 viewBox="0 0 52 52" style="enable-background:new 0 0 52 52;" xml:space="preserve">
<style type="text/css">
	.st0{fill:#999999;}
</style>
<path class="st0" d="M26,52C11.6,52,0,40.4,0,26S11.6,0,26,0c14.4,0,26,11.6,26,26S40.4,52,26,52z M26,3.2C13.4,3.2,3.3,13.4,3.3,26
	S13.4,48.7,26,48.7S48.7,38.6,48.7,26S38.6,3.2,26,3.2z M35.7,27.6h-8.1v8.1c0,0.9-0.7,1.6-1.6,1.6c-0.9,0-1.6-0.7-1.6-1.6v-8.1
	h-8.1c-0.9,0-1.6-0.7-1.6-1.6c0-0.9,0.7-1.6,1.6-1.6h8.1v-8.1c0-0.9,0.7-1.6,1.6-1.6c0.9,0,1.6,0.7,1.6,1.6v8.1h8.1
	c0.9,0,1.6,0.7,1.6,1.6C37.4,26.9,36.6,27.6,35.7,27.6z"/>
</svg>
