<?xml version="1.0" encoding="utf-8"?>
<!-- Generator: Adobe Illustrator 21.0.0, SVG Export Plug-In . SVG Version: 6.00 Build 0)  -->
<svg version="1.1" id="图层_1" xmlns="http://www.w3.org/2000/svg" xmlns:xlink="http://www.w3.org/1999/xlink" x="0px" y="0px"
	 viewBox="0 0 30 30" style="enable-background:new 0 0 30 30;" xml:space="preserve">
<style type="text/css">
	.st0{fill:#FFFFFF;}
</style>
<g>
	<path class="st0" d="M30,18.5c0-4.3-4.2-7.7-9-7.7c-5.1,0-9,3.5-9,7.7c0,4.3,4,7.7,9,7.7c1.1,0,2.1-0.3,3.2-0.5l2.9,1.6l-0.8-2.7
		C28.4,23,30,20.9,30,18.5z M18,17.1c-0.5,0-1.1-0.5-1.1-1.1c0-0.5,0.5-1.1,1.1-1.1c0.8,0,1.3,0.5,1.3,1.1
		C19.4,16.6,18.9,17.1,18,17.1z M23.9,17.1L23.9,17.1c-0.5,0-1.1-0.5-1.1-1.1c0-0.5,0.5-1.1,1.1-1.1c0.8,0,1.3,0.5,1.3,1.1
		C25.2,16.6,24.7,17.1,23.9,17.1z"/>
	<path class="st0" d="M10.6,2.7C4.8,2.7,0,6.7,0,11.8c0,2.9,1.6,5.3,4.2,7.2l-1.1,3.2l3.7-1.9c1.3,0.3,2.4,0.5,3.7,0.5
		c0.3,0,0.7,0,1,0c-0.2-0.7-0.3-1.5-0.3-2.2c0-4.7,4-8.4,9-8.4c0.3,0,0.7,0,1,0.1C20.4,5.9,15.8,2.7,10.6,2.7z M7.2,9.9L7.2,9.9
		c-0.8,0-1.6-0.5-1.6-1.3c0-0.8,0.8-1.3,1.6-1.3c0.8,0,1.3,0.5,1.3,1.3C8.5,9.4,8,9.9,7.2,9.9z M14.6,9.9c-0.8,0-1.6-0.5-1.6-1.3
		c0-0.8,0.8-1.3,1.6-1.3c0.8,0,1.3,0.5,1.3,1.3C15.9,9.4,15.4,9.9,14.6,9.9z"/>
</g>
</svg>
