<?xml version="1.0" encoding="utf-8"?>
<!-- Generator: Adobe Illustrator 21.0.0, SVG Export Plug-In . SVG Version: 6.00 Build 0)  -->
<svg version="1.1" id="图层_1" xmlns="http://www.w3.org/2000/svg" xmlns:xlink="http://www.w3.org/1999/xlink" x="0px" y="0px"
	 viewBox="0 0 30 30" style="enable-background:new 0 0 30 30;" xml:space="preserve">
<style type="text/css">
	.st0{fill:#FFFFFF;}
</style>
<g>
	<path class="st0" d="M7.3,17.1c-0.4,0-0.7-0.1-1.1-0.3c-0.7-0.4-1.1-1.1-1.1-1.8c0-0.8,0.4-1.5,1.1-1.8C6.6,13,7,12.9,7.3,12.9
		s0.7,0.1,1.1,0.3C9,13.5,9.4,14.2,9.4,15c0,0.8-0.4,1.5-1.1,1.8C8.1,17,7.7,17.1,7.3,17.1z M15,17.1c-0.4,0-0.7-0.1-1.1-0.3
		c-0.7-0.4-1.1-1.1-1.1-1.8c0-0.8,0.4-1.5,1.1-1.8c0.3-0.2,0.7-0.3,1.1-0.3c0.4,0,0.7,0.1,1.1,0.3c0.7,0.4,1.1,1.1,1.1,1.8
		c0,0.8-0.4,1.5-1.1,1.8C15.8,17,15.4,17.1,15,17.1z M22.7,17.1c-0.4,0-0.7-0.1-1.1-0.3c-0.7-0.4-1.1-1.1-1.1-1.8
		c0-0.8,0.4-1.5,1.1-1.8c0.3-0.2,0.7-0.3,1.1-0.3c0.4,0,0.7,0.1,1.1,0.3c0.7,0.4,1.1,1.1,1.1,1.8c0,0.8-0.4,1.5-1.1,1.8
		C23.4,17,23,17.1,22.7,17.1z"/>
	<path class="st0" d="M15.5,30L15.5,30l-0.4,0c0,0-0.1,0-0.1,0c-4,0-7.8-1.6-10.6-4.4C1.6,22.8,0,19,0,15c0-4,1.6-7.8,4.4-10.6
		C7.2,1.6,11,0,15,0c3.8,0,7.5,1.5,10.3,4.1c2.8,2.6,4.4,6.2,4.7,10l0,0.4h0V30L15.5,30L15.5,30z M17.3,28.3h11V14.6l0-0.4
		c-0.2-3.4-1.7-6.5-4.1-8.8C21.6,3,18.4,1.7,15,1.7c-1.8,0-3.5,0.4-5.2,1c-1.6,0.7-3,1.6-4.2,2.8C4.4,6.8,3.5,8.3,2.8,9.8
		c-0.7,1.6-1,3.4-1,5.2c0,1.8,0.4,3.5,1,5.2c0.7,1.6,1.6,3,2.8,4.2s2.6,2.2,4.2,2.8c1.6,0.7,3.4,1,5.2,1c0,0,0.1,0,0.1,0L17.3,28.3
		L17.3,28.3L17.3,28.3z"/>
</g>
</svg>
